<svg width="107" height="189" viewBox="0 0 107 189" fill="none" xmlns="http://www.w3.org/2000/svg">
<path d="M53.76 188.673C42.8374 188.673 33.3654 186.795 25.344 183.041C17.3227 179.115 12.2872 173.827 7.84988 167C3.41255 160.173 1.62402 152 0.512528 144C0.512528 140.587 0 134.913 0 134.913H0.00479853H8.44802H16.896C16.896 134.913 17.152 139.111 17.152 141.5C18.624 148.162 19.2227 153.221 22.124 158C25.0254 162.779 28.5867 166.657 34.048 169.217C39.5094 171.777 45.9094 173.057 53.248 173.057C64.6827 173.057 73.5574 169.899 79.872 163.585C86.3574 157.099 89.6 147.201 89.6 133.889V54.7847H53.504C51.6267 54.7847 47.36 54.7847 47.36 54.7847C47.36 54.7847 47.36 48.8967 47.36 46.8487C47.36 44.9714 47.36 39.1687 47.36 39.1687C47.36 39.1687 51.2854 39.1687 53.504 39.1687H98.816C100.693 39.1687 106.496 39 106.496 39C106.496 39 106.496 43.606 106.496 45.8247V133.889C106.496 147.201 104.107 157.867 99.328 165.889C94.72 173.91 88.4054 179.713 80.384 183.297C72.5333 186.881 63.6587 188.673 53.76 188.673Z" fill="black"/>
<path fill-rule="evenodd" clip-rule="evenodd" d="M53.248 188.672C43.3494 188.672 34.3894 186.88 26.368 183.296C18.3467 179.712 11.9467 173.909 7.16803 165.888C2.51261 158.074 0.124867 147.748 0.00479853 134.913L17.1543 134.508C17.25 147.675 20.4066 157.367 26.624 163.584C32.9387 169.899 41.8134 173.057 53.248 173.057C64.6827 173.057 73.5574 169.899 79.872 163.585C86.3573 157.27 89.6 147.371 89.6 133.889V54.7847C89.6 48.8223 88.9659 43.7295 87.6976 39.1687L106.496 39C106.5 44 106.5 49.2441 106.5 55L106.496 133.889C105.868 147.501 104.124 157.5 99.584 165.888C94.8054 173.909 88.4053 179.713 80.384 183.297C72.3627 186.881 63.3174 188.672 53.248 188.672ZM100 23C93.5 14.5 88.4054 8.95999 80.384 5.37599C72.3627 1.792 63.3174 0 53.248 0C43.1787 0 34.1334 1.792 26.112 5.37599C18.2614 8.96 11.9467 14.7627 7.16803 22.784C2.38936 30.8053 3.05176e-05 41.472 3.05176e-05 54.784L0 119H17.152V54.784C17.152 41.3013 20.3094 31.4027 26.624 25.088C32.9387 18.7733 41.8134 15.616 53.248 15.616C64.6827 15.616 74.6853 16.6853 81 23C80.7646 22.7515 81.2447 23.2382 81 23L100 23Z" fill="black"/>
</svg>
